<mxfile host="app.diagrams.net" modified="2023-02-03T07:10:27.304Z" agent="5.0 (Windows NT 10.0; Win64; x64) AppleWebKit/537.36 (KHTML, like Gecko) Chrome/109.0.0.0 Safari/537.36" etag="HG9wKew9G-t96Cbm0pJS" version="20.8.15" type="github">
  <diagram name="第 1 页" id="EVu2Rd81g_lWa8THcVCt">
    <mxGraphModel dx="1152" dy="635" grid="1" gridSize="10" guides="1" tooltips="1" connect="1" arrows="1" fold="1" page="1" pageScale="1" pageWidth="1069" pageHeight="1654" math="1" shadow="0">
      <root>
        <mxCell id="0" />
        <mxCell id="1" parent="0" />
        <mxCell id="R9hl_3WZdRqwd8kDsEqt-5" value="" style="rounded=1;whiteSpace=wrap;html=1;fontSize=14;dashed=1;" parent="1" vertex="1">
          <mxGeometry x="50" y="400" width="120" height="310" as="geometry" />
        </mxCell>
        <mxCell id="R9hl_3WZdRqwd8kDsEqt-2" value="Clean Data&lt;br style=&quot;font-size: 10px;&quot;&gt;$$X$$" style="whiteSpace=wrap;html=1;aspect=fixed;fillColor=#d5e8d4;strokeColor=#82b366;fontSize=10;" parent="1" vertex="1">
          <mxGeometry x="77.5" y="450" width="65" height="65" as="geometry" />
        </mxCell>
        <mxCell id="R9hl_3WZdRqwd8kDsEqt-3" value="&lt;font style=&quot;font-size: 14px;&quot;&gt;&lt;b&gt;Robust Teacher&lt;/b&gt;&lt;/font&gt;" style="shape=cube;whiteSpace=wrap;html=1;boundedLbl=1;backgroundOutline=1;darkOpacity=0.05;darkOpacity2=0.1;size=20;fillColor=#dae8fc;strokeColor=#6c8ebf;" parent="1" vertex="1">
          <mxGeometry x="535" y="480" width="180" height="102.5" as="geometry" />
        </mxCell>
        <mxCell id="R9hl_3WZdRqwd8kDsEqt-6" value="" style="endArrow=classic;html=1;rounded=0;fontSize=14;entryX=-0.009;entryY=0.336;entryDx=0;entryDy=0;entryPerimeter=0;strokeWidth=1.5;" parent="1" target="R9hl_3WZdRqwd8kDsEqt-3" edge="1">
          <mxGeometry width="50" height="50" relative="1" as="geometry">
            <mxPoint x="170" y="470" as="sourcePoint" />
            <mxPoint x="310" y="470" as="targetPoint" />
          </mxGeometry>
        </mxCell>
        <mxCell id="R9hl_3WZdRqwd8kDsEqt-7" value="Adversarial Data&lt;br style=&quot;font-size: 10px;&quot;&gt;$$X&#39;$$" style="whiteSpace=wrap;html=1;aspect=fixed;fillColor=#fff2cc;strokeColor=#d6b656;fontSize=10;" parent="1" vertex="1">
          <mxGeometry x="77.5" y="610" width="65" height="65" as="geometry" />
        </mxCell>
        <mxCell id="R9hl_3WZdRqwd8kDsEqt-9" value="&lt;font style=&quot;font-size: 14px;&quot;&gt;&lt;b&gt;Student&lt;/b&gt;&lt;/font&gt;" style="shape=cube;whiteSpace=wrap;html=1;boundedLbl=1;backgroundOutline=1;darkOpacity=0.05;darkOpacity2=0.1;size=13;fillColor=#e1d5e7;strokeColor=#9673a6;" parent="1" vertex="1">
          <mxGeometry x="580" y="780" width="125" height="72.5" as="geometry" />
        </mxCell>
        <mxCell id="R9hl_3WZdRqwd8kDsEqt-10" value="Gradient&amp;nbsp; Ascend" style="text;html=1;strokeColor=none;fillColor=none;align=center;verticalAlign=middle;whiteSpace=wrap;rounded=0;fontSize=14;fontStyle=1;fontFamily=Oswald;fontColor=#EA6B66;fontSource=https%3A%2F%2Ffonts.googleapis.com%2Fcss%3Ffamily%3DOswald;" parent="1" vertex="1">
          <mxGeometry x="270" y="610" width="60" height="30" as="geometry" />
        </mxCell>
        <mxCell id="R9hl_3WZdRqwd8kDsEqt-11" value="" style="curved=1;endArrow=classic;html=1;rounded=0;fontFamily=Lucida Console;fontSize=10;fontColor=#0000FF;exitX=-0.019;exitY=0.661;exitDx=0;exitDy=0;exitPerimeter=0;strokeWidth=1.5;" parent="1" source="R9hl_3WZdRqwd8kDsEqt-3" edge="1">
          <mxGeometry width="50" height="50" relative="1" as="geometry">
            <mxPoint x="310" y="560" as="sourcePoint" />
            <mxPoint x="180" y="620" as="targetPoint" />
            <Array as="points">
              <mxPoint x="300" y="610" />
            </Array>
          </mxGeometry>
        </mxCell>
        <mxCell id="R9hl_3WZdRqwd8kDsEqt-12" value="Adversarial MixUp" style="ellipse;shape=cloud;whiteSpace=wrap;html=1;fontFamily=Comic Sans MS;fontSize=10;fontColor=#0000FF;fontStyle=1" parent="1" vertex="1">
          <mxGeometry x="110" y="780" width="180" height="90" as="geometry" />
        </mxCell>
        <mxCell id="R9hl_3WZdRqwd8kDsEqt-13" value="" style="endArrow=classic;html=1;rounded=0;fontFamily=Comic Sans MS;fontSize=14;fontColor=#0000FF;entryX=0.063;entryY=0.5;entryDx=0;entryDy=0;entryPerimeter=0;strokeWidth=1.5;" parent="1" target="R9hl_3WZdRqwd8kDsEqt-12" edge="1">
          <mxGeometry width="50" height="50" relative="1" as="geometry">
            <mxPoint x="100" y="710" as="sourcePoint" />
            <mxPoint x="150" y="660" as="targetPoint" />
            <Array as="points">
              <mxPoint x="100" y="825" />
            </Array>
          </mxGeometry>
        </mxCell>
        <mxCell id="R9hl_3WZdRqwd8kDsEqt-14" value="" style="endArrow=classic;html=1;rounded=0;fontFamily=Comic Sans MS;fontSize=14;fontColor=#0000FF;fillColor=#ffe6cc;strokeColor=#d79b00;strokeWidth=2;entryX=-0.008;entryY=0.545;entryDx=0;entryDy=0;entryPerimeter=0;exitX=0.92;exitY=0.436;exitDx=0;exitDy=0;exitPerimeter=0;" parent="1" target="R9hl_3WZdRqwd8kDsEqt-9" edge="1" source="R9hl_3WZdRqwd8kDsEqt-12">
          <mxGeometry width="50" height="50" relative="1" as="geometry">
            <mxPoint x="290" y="820" as="sourcePoint" />
            <mxPoint x="570" y="820" as="targetPoint" />
          </mxGeometry>
        </mxCell>
        <mxCell id="R9hl_3WZdRqwd8kDsEqt-15" value="" style="endArrow=classic;html=1;rounded=0;strokeWidth=2;fontFamily=Comic Sans MS;fontSize=14;fontColor=#0000FF;fillColor=#ffe6cc;strokeColor=#d79b00;exitX=0.5;exitY=0.111;exitDx=0;exitDy=0;exitPerimeter=0;" parent="1" edge="1" source="R9hl_3WZdRqwd8kDsEqt-12">
          <mxGeometry width="50" height="50" relative="1" as="geometry">
            <mxPoint x="200" y="770" as="sourcePoint" />
            <mxPoint x="640" y="590" as="targetPoint" />
            <Array as="points">
              <mxPoint x="200" y="710" />
              <mxPoint x="640" y="710" />
            </Array>
          </mxGeometry>
        </mxCell>
        <mxCell id="R9hl_3WZdRqwd8kDsEqt-17" value="KL Divergence" style="rounded=0;whiteSpace=wrap;html=1;fontFamily=Comic Sans MS;fontSize=14;fillColor=#fad9d5;strokeColor=#ae4132;fontStyle=1" parent="1" vertex="1">
          <mxGeometry x="790" y="650" width="120" height="60" as="geometry" />
        </mxCell>
        <mxCell id="R9hl_3WZdRqwd8kDsEqt-18" value="" style="curved=1;endArrow=classic;html=1;rounded=0;strokeWidth=2;fontFamily=Comic Sans MS;fontSize=14;fontColor=#FF0000;strokeColor=#0000FF;" parent="1" edge="1">
          <mxGeometry width="50" height="50" relative="1" as="geometry">
            <mxPoint x="715" y="540" as="sourcePoint" />
            <mxPoint x="850" y="640" as="targetPoint" />
            <Array as="points">
              <mxPoint x="820" y="550" />
            </Array>
          </mxGeometry>
        </mxCell>
        <mxCell id="R9hl_3WZdRqwd8kDsEqt-19" value="" style="curved=1;endArrow=classic;html=1;rounded=0;strokeWidth=2;fontFamily=Comic Sans MS;fontSize=14;fontColor=#FF0000;strokeColor=#0000FF;" parent="1" edge="1">
          <mxGeometry width="50" height="50" relative="1" as="geometry">
            <mxPoint x="715" y="827" as="sourcePoint" />
            <mxPoint x="850" y="720" as="targetPoint" />
            <Array as="points">
              <mxPoint x="820" y="810" />
            </Array>
          </mxGeometry>
        </mxCell>
      </root>
    </mxGraphModel>
  </diagram>
</mxfile>
